/* XPM */
static char *b42b7c04711e4879d67397f2bc7302feE91qpd2hzKmQNaf8[] = {
/* columns rows colors chars-per-pixel */
"64 64 155 2 ",
"   c None",
".  c black",
"X  c #010000",
"o  c #010101",
"O  c #020000",
"+  c #020202",
"@  c gray1",
"#  c #040404",
"$  c gray2",
"%  c #060606",
"&  c #070707",
"*  c #0B0404",
"=  c #090909",
"-  c gray5",
";  c #0E0E0E",
":  c gray6",
">  c #120000",
",  c #130000",
"<  c #150000",
"1  c #180000",
"2  c #101010",
"3  c #131313",
"4  c gray8",
"5  c #1E1E1E",
"6  c #300000",
"7  c #3C0000",
"8  c gray15",
"9  c gray16",
"0  c gray18",
"q  c #2F2F2F",
"w  c gray20",
"e  c #353535",
"r  c gray21",
"t  c #373737",
"y  c gray22",
"u  c gray23",
"i  c #3C3C3C",
"p  c gray24",
"a  c #3F3F3F",
"s  c #450000",
"d  c #4F0000",
"f  c #610000",
"g  c #630000",
"h  c gray27",
"j  c #464646",
"k  c gray28",
"l  c #484848",
"z  c gray29",
"x  c #4C4C4C",
"c  c #5B4C4C",
"v  c #515151",
"b  c gray34",
"n  c #585858",
"m  c gray35",
"M  c gray37",
"N  c gray38",
"B  c #686868",
"V  c DimGray",
"C  c #6A6A6A",
"Z  c #6C6C6C",
"A  c #6F6F6F",
"S  c gray44",
"D  c gray46",
"F  c #767676",
"G  c #777777",
"H  c #7E7E7E",
"J  c #900000",
"K  c #910000",
"L  c #A00000",
"P  c #A10000",
"I  c #B40000",
"U  c #C10000",
"Y  c #C20000",
"T  c #C30000",
"R  c #C50000",
"E  c #C90000",
"W  c #D10000",
"Q  c #D80000",
"!  c #DF0000",
"~  c #EB0000",
"^  c #EE0909",
"/  c #F20000",
"(  c #F50000",
")  c #F60000",
"_  c #F40707",
"`  c #FD0000",
"'  c #FE0000",
"]  c red",
"[  c #FF0303",
"{  c #FF0909",
"}  c #FF1C1C",
"|  c #FF1D1D",
" . c #FF3A3A",
".. c #FF5959",
"X. c #C47272",
"o. c #FF6161",
"O. c #FF6363",
"+. c #FF6D6D",
"@. c #FF7070",
"#. c #818181",
"$. c gray53",
"%. c #888888",
"&. c #898989",
"*. c #8D8D8D",
"=. c #929292",
"-. c #939393",
";. c gray58",
":. c #959595",
">. c gray59",
",. c gray60",
"<. c #A0A0A0",
"1. c #A2A2A2",
"2. c gray65",
"3. c #A9A9A9",
"4. c #AAAAAA",
"5. c gray67",
"6. c gray69",
"7. c gray71",
"8. c #BBBBBB",
"9. c #BCBCBC",
"0. c #FFA1A1",
"q. c #C0C0C0",
"w. c #C1C1C1",
"e. c gray77",
"r. c #C6C6C6",
"t. c gray78",
"y. c #C8C8C8",
"u. c gray79",
"i. c #CACACA",
"p. c #CBCBCB",
"a. c gray80",
"s. c #CDCDCD",
"d. c #CECECE",
"f. c gray81",
"g. c gray84",
"h. c #DFDFDF",
"j. c #E4E4E4",
"k. c #E7E7E7",
"l. c #EFEFEF",
"z. c #F3F3F3",
"x. c gray96",
"c. c #F6F6F6",
"v. c gray97",
"b. c #FEF3F3",
"n. c #FFF6F6",
"m. c #FFF7F7",
"M. c #F8F8F8",
"N. c gray98",
"B. c #FBFBFB",
"V. c #FEF9F9",
"C. c gray99",
"Z. c #FDFDFD",
"A. c #FEFEFE",
"S. c #FFFEFE",
"D. c white",
/* pixels */
"                                                                        a.                                                      ",
"                                                  a.a.                  p.a.                                                    ",
"                                            a.  a.a.a.                    a.a.a.p.a.                                            ",
"                                    a.    a.a.p.a.a.  a.a.a.a.  p.a.a.a.a.  a.a.p.  a.  a.a.                                    ",
"                                  a.a.  a.    p.  p.p.a.a.a.        a.a.a.        p.p.  a.a.a.                                  ",
"                            p.  p.a.a.  p.p.p.a.  t   a.                a.  D     a.  p.    a.                                  ",
"                            a.  p.    p.p.      t t t t t             t t t y y       a.  a.a.  a.a.                            ",
"                          a.p.p.p.  a.  a.a.D t t t t t t t t t t t t t t t t t t a.a.a.  a.  a.a.a.                            ",
"                          a.p.    a.p.p.a.t t t t p.p.p.t t t t t t t t p.p.7.t t t 7.p.    a.  a.a.a.                          ",
"                    a.  a.a.a.p.p.    t t t t t a.. Q . . e.a.a.a.a.Z . . . . a.t t t t t     a.    a.  p.a.                    ",
"                    a.a.    a.p.a.p t t t t p.7.. ] E ] ] ] P s d W ] ] ] ] ( . p.N t t t t y   a.  a.  a.a.                    ",
"                  a.a.a.    t t t y t t H a.. , ] < ] ] ] ] ] ] ] ] ] ] ] ] ] ] . : p.t t t t t t t     a.a.                    ",
"                  a.a.a.p.3.t t t t p.a.. . ] ] ] ] ] ] ! . . . . . . ] ] ] ] ] ] ~ . p a.-.y t t t a.  a.a.a.                  ",
"                  a.a.  a.  t p.a.z . . ] ] ] ] ] ] ] . . . . . . . . . g ] ] ] ] ] ] / . . 3.a.t t   a.a.a.                    ",
"              a.  a.  a.    t e.. ] ] ] ] ] ] ] ] ] . . . . . . . . . . . Y ] ] ] ] ] ] ] ] ^ . t t   a.  p.a.  a.              ",
"              a.a.    a.    t 9.. ] ] ] ] ] ] ] ] ] . . . 7 ] ] ] ] . . . . ] ] ] ] ] ] ] ] @.. t t     a.a.  a.a.              ",
"              a.a.  a.    a.t 3.. ] ] ] ] ] ] ] ] . . . 1 ] ] ] ] ] ] . . . g ] ] ] ] ( ] ] D.. t t a.    a.  a.a.              ",
"            a.a.a.  a.a.  a.t &.. ] ] ] . K R R R R R R R R R R R R ~ ] . . . ] R Y , . } D.D.. t t a.p.  a.    a.              ",
"            a.a.a.a.    a.a.t h . ] ] ] . . . . . . . . . . . . . . . ] . . . ] . . . . D.D.D.. t t a.a.  p.    a.              ",
"              a.p.a.  a.a.  t t . ] ] ] . . . . . . . . . . . . . . . ] . . . } . . . . D.D.D.p t t   a.a.p.a.  a.              ",
"        a.a.    p.a.    a.a.t t . ] ] ] . . ] ] ] ] ] ] ] ] I . . ] ] 6 . . . ] ] c . . D.D.D.<.t t a.p.  a.a.      a.a.        ",
"        a.a.a.  a.    a.a.p.t t . ] ] ] . . ] ] ] . . . . ] ] . . ] ] . . . b.m.{ v . . D.D.D.p.t t a.a.a.  a.a.  a.a.a.        ",
"        a.a.a.  a.  a.a.a.  t t 8 ] ] ] . . ] ] ] . . . . . P ] ] ] ] . . . D.0.D.h . 3 D.D.M p.t     a.  a.  a.  a.a.p.        ",
"        a.a.a.  a.    a.a.  t t a.] ] ] ] . ] ] ] . . . . . . . . . . ] D.D.D.D.D.y . D.D.D.&.p.t     a.a.    a.a.  p.p.        ",
"        a.a.    a.  a.a.      t a.] ] ] ] ] ] ] ] . . . . . . . . . . . j.D.D.D.D.D.D.D.D.D.$ V t       a.a.  a.a.a.a.          ",
"          a.    a.a.    ,.,.  t y.K ] ] ] ] ] ] ] . . . ] ] 6 . . . . . . z.D.D.D.D.D.D.D.D.. t t   a.a.      a.a.a.a.          ",
"            a.a.a.a.  ,.,.    t t . ] ] ] ] ] ] ] . . . ] ] ] ] +.D.4 . . . D.D.D.D.D.D.D.D.. t t   a.a.a.    a.  a.            ",
"      a.a.    a.a.  ,.  ,.    t t . ] ] ] ] ] ] ] . . . ] ] Y . . D.D.3.. . V D.D.D.D.D.D.D.q.t t     a.a.    a.p.    a.a.      ",
"      a.a.a.  a.p.  ,.,.,.    t t :.] ] ] ] ] ] ] . . . ] ] X.. . D.D.D.. . . D.D.D.D.D.D.B.a.t       a.a.a.  a.a.  a.a.a.      ",
"      a.a.p.a.  a.    ,.,.      t a.] ] ] ] ] ] ] . . . ] V.e.. . D.D.D.. . . D.D.D.D.D.D.. x t   a.  a.a.    a.  a.  a.        ",
"        a.a.a.  a.  ,.,.p.a.    t v . ] ] ] ] ] ] . . . o.D.e.. . D.D.D.. . . D.D.D.D.D.D.. t t     a.  a.    a.a.  a.a.        ",
"        a.a.  a.a.      a.a.    t t . ] ] ] ] ] ] . . . D.D.p.. . D.D.D.. . . D.D.D.D.D.D.p.t       a.a.      a.a.p.a.a.        ",
"        a.a.a.p.a.a.  a.a.a.      t a.] ] ] ] ] ] . . . D.D.p.. . D.D.D.. . . D.D.D.D.D.w 2.t     p.a.a.      a.  a.a.          ",
"          a.a.p.a.    a.  a.      t #.* ] ] ] ] ] . . . D.D.a.. . D.D.D.. . . D.D.D.D.D.. t t     a.a.p.p.  a.p.  a.            ",
"            a.a.a.a.  a.a.a.      t t & ] ] ] ] ] . . . D.D.a.. . D.D.D.. . . D.D.D.D.D.a.t       a.a.  p.  a.    a.            ",
"      a.a.a.a.  a.a.  a.a.a.  a.    t a._ ] ] o.V.. . c.D.D.a.. . D.D.D.c.. . D.D.D.D.. x t   a.a.a.a.      a.a.  a.a.a.a.      ",
"        a.a.a.a.  a.  p.a.a.p.a.p.  t t . ] D. .D.. . D.D.D.. . . l.D.D.D.. . D.D.D.D.-.t t   a.a.  a.    a.a.  a.a.a.a.        ",
"        p.a.a.  a.  a.      a.a.a.  t t p.D...D.D.a.D.D.D.D.. . . . D.D.D.D.S D.D.D.$ :.t     a.a.a.      a.  a.  a.a.          ",
"          a.a.a.  a.a.      a.a.a.    t t . D.D.D.D.D.D.D.. . . . . p D.D.D.D.D.D.D.$.t t   a.a.p.a.p.a.a.a.a.  a.a.a.          ",
"            a.a.a.    a.    a.  a.a.  h t p.p.D.D.D.D.D.. . . . . . . 5 D.D.D.D.D.. D t a.  a.a.  a.    a.    a.a.a.            ",
"            p.a.a.a.  a.a.  a.  a.a.  a.t t = D.D.D.V . . . . . . . . . . D.D.D.B.p.t t a.  a.a.      a.a.a.a.a.a.              ",
"                        a.      a.a.p.a.<.t 8.. D.D.D.: . 5 D.. . D.. . z.D.D.D.. t t p.a.  a.a.a.  a.a.  a.a.                  ",
"                a.a.    a.a.  a.a.    a.a.t t a.g.D.D.D.D.D.D.. . D.D.D.D.D.D.. e.t n a.a.  a.p.p.a.a.      a.                  ",
"            a.a.a.a.a.a.  a.a.    p.  a.a.a.t t 0 D.D.D.D.D.D.. . D.D.D.D.D.D p.y t a.  a.        a.  p.a.a.a.a.a.a.            ",
"              a.a.a.a.  a.a.a.a.a.  a.a.  a.Z y n . D.D.D.D.D.D.D.D.D.D.D.D.-.t t a.a.a.a.a.  p.a.p.a.    a.a.a.                ",
"                  a.a.a.a.    a.a.      a.  a.y t q.. D.D.D.c.D.D.c.D.D.B : t t *.a.  a.    a.a.      a.a.a.a.                  ",
"                    a.a.a.a.a.a.a.a.a.      a.a.t t p.. D.c.D.D.B.D.D.. . z t t a.a.a.    a.a.    a.a.a.a.a.                    ",
"                            a.a.    a.a.          t t p.. D.g.k.D.D.. : n t t   a.      a.a.    a.a.                            ",
"                            a.a.a.    a.a.a.  p.    t t p.. h.$ D.. n h t t         a.a.a.    a.a.p.                            ",
"                        a.a.a.a.a.a.a.a.  a.a.a.  a.  t y :.0 9 . p.y t t       a.a.a.  a.a.a.a.a.a.a.a.                        ",
"                      a.a.a.a.a.a.a.p.  a.    a.a.a.  a.t t t a.a.t t t     a.a.          p.a.a.a.a.a.a.a.                      ",
"                          a.a.a.a.a.a.a.a.a.a.        a.a.t t t t t t a.a.        p.  a.a.a.a.a.a.a.a.                          ",
"                              a.a.a.a.a.    p.a.a.          t t t t         p.a.        a.a.a.a.                                ",
"                                            a.a.a.                              p.p.                                            ",
"                                                                                                                                ",
"                                                                                                                                ",
"                                                                                                                                ",
"                                  ] ] ] ] ] ]     ] ] ] ] ] ] ]           D.D.  D.D.D.D.D.D.                                    ",
"                                  ] ] ] ] ] ] ]   ] ] ] ] ] ] ]           D.D.  D.D.D.D.D.D.D.                                  ",
"                                            ] ]       ] ]                                 D.D.                                  ",
"                                  ] ] ] ] ] ]         ] ]       ] ] D.    D.D.  D.D.      D.D.                                  ",
"                                  ] ] ] ] ]           ] ]         ] m.D.  D.D.  D.D.      D.D.                                  ",
"                                  ] ]   ] ] ]         ] ]                 D.D.  D.D.D.D.D.D.D.                                  ",
"                                  ] ]     ] ] ]       ] ]                 D.D.  D.D.D.D.D.D.                                    "
};
