/* XPM */
static char *ecde4dbeb592489bb5efc187b47c1644Q7igCCJ1ADjpztju[] = {
/* columns rows colors chars-per-pixel */
"32 32 83 1 ",
"  c None",
". c black",
"X c #010000",
"o c #010101",
"O c #020000",
"+ c #020202",
"@ c gray1",
"# c #040404",
"$ c #070707",
"% c #080000",
"& c #0E0000",
"* c #090909",
"= c gray9",
"- c #1D1D1D",
"; c #210909",
": c gray13",
"> c gray14",
", c #2A2A2A",
"< c #353535",
"1 c gray21",
"2 c #373737",
"3 c #3A3A3A",
"4 c #3C3C3C",
"5 c #3F3F3F",
"6 c #5B0000",
"7 c #414141",
"8 c gray26",
"9 c #535353",
"0 c gray35",
"q c #5D5D5D",
"w c gray39",
"e c #C10000",
"r c #C30000",
"t c #C50000",
"y c #C60000",
"u c #C70000",
"i c #C90000",
"p c #D70000",
"a c #DF0000",
"s c #EB0000",
"d c #EF0000",
"f c #EA0A0A",
"g c #F10000",
"h c #F30000",
"j c #FB0000",
"k c #FE0000",
"l c red",
"z c #FF5F5F",
"x c gray56",
"c c #959595",
"v c #989898",
"b c gray60",
"n c gray61",
"m c #A5A5A5",
"M c #A9A9A9",
"N c gray67",
"B c #AFAFAF",
"V c gray69",
"C c gray72",
"Z c #B9B9B9",
"A c #BCBCBC",
"S c gray",
"D c gray75",
"F c #FF8B8B",
"G c #C0A6A6",
"H c #FFBFBF",
"J c #C0C0C0",
"K c #C1C1C1",
"L c #C3C3C3",
"P c #C6C6C6",
"I c gray79",
"U c #CACACA",
"Y c #CBCBCB",
"T c gray80",
"R c #CDCDCD",
"E c #D5D5D5",
"W c #FFC0C0",
"Q c gray90",
"! c #F4F4F4",
"~ c #F8F8F8",
"^ c gray98",
"/ c gray99",
"( c white",
/* pixels */
"             T    T             ",
"         T YT T  T TT T         ",
"        TT YYTY  TTY TTT        ",
"       TYT  22222222  TTT       ",
"      TTYY22T*TcnT.Y22 TTTY     ",
"     T P222-llllllllB222T T     ",
"     YT2S76lll....lll.mc2T      ",
"   T Y 2lllll..gy..llllf2Y      ",
"   TY T2llllllllll.llplM2TTTT   ",
"   TY T2ll.......l.s..(72T TT   ",
"  TTT Y2al.ljdl..g.Hz.(.2T T T  ",
"  TT T 2%l.li...&W.((.(.2T TTT  ",
"  TT Y 3.llly.....Z((((S2 T  T  ",
" T Y bb Tllly.l.!V.((((x TT   T ",
"  T  c  3llly.l..(.((((2 Y   T  ",
"  TT bT 2lllr.(..(.(((,2 TYTTT  ",
"  T T T 2#llr.(.#(.(((J2 Y TT   ",
" TT T T  9llB.(.#(.(((3  T T TT ",
"  TT  YT 2;FG((..((((.2YTT   T  ",
"   T TYTT M(((...0(((2 TTTT T   ",
"    T YTTT2.(*..=.J(q2TTTTYY    ",
"   TTTY  TT2^((.Q((:2TTT  TTY   ",
"    TT T   5c(((((^2J  TY TT    ",
"     TTYTT Y2YE>(.w T TY T      ",
"      TTT T T2C#.52Y TYTTT      ",
"     TTTTT TTT2222YTT TTTTT     ",
"        T      2   TT           ",
"                                ",
"                                ",
"           l  l       (         ",
"        lll   l l(  (           ",
"        l ll  l     (((         "
};
