/* XPM */
static char *fb3556e6795a4145b553bb653853fdf6QfRWlpYuZRQofmDE[] = {
/* columns rows colors chars-per-pixel */
"16 16 26 1 ",
"  c None",
". c black",
"X c #060606",
"o c #1B1B1B",
"O c #220000",
"+ c gray21",
"@ c #373737",
"# c #3A3A3A",
"$ c #6C0000",
"% c gray28",
"& c #565656",
"* c #FA0000",
"= c #FC0000",
"- c red",
"; c #FF1616",
": c #979797",
"> c #A4A4A4",
", c gray75",
"< c #C1C1C1",
"1 c #C5C5C5",
"2 c #CBCBCB",
"3 c gray80",
"4 c #E2E2E2",
"5 c gray92",
"6 c #FEFEFE",
"7 c white",
/* pixels */
"      3  3      ",
"      @  @ 2    ",
"  2 >@*..$@2    ",
"  3@.--..--.#3  ",
"  3@-......7<3  ",
" 3  -..--O.7  3 ",
" 33 --.-.775 33 ",
" 3:3o-.77.7332  ",
"   3@-.77.7@3   ",
" 33  ;7.X74   3 ",
"     @7777@ 3   ",
"  32 31,7% 333  ",
"   3  2&@3  3   ",
"                ",
"    ---- 777    ",
"    --   7 7    "
};
